<svg xmlns="http://www.w3.org/2000/svg" xmlns:xlink="http://www.w3.org/1999/xlink" width="346" height="318" viewBox="0 0 346 318">
    <defs>
      <linearGradient id="linear-gradient" x1="1.534" y1="1.132" x2="-1.222" y2="1.118" gradientUnits="objectBoundingBox">
        <stop offset="0" stop-color="#d2d904"/>
        <stop offset="1" stop-color="#073a18"/>
      </linearGradient>
      <clipPath id="clip-Publication_Instagram_4">
        <rect width="346" height="318"/>
      </clipPath>
    </defs>
    <g id="Publication_Instagram_4" data-name="Publication Instagram – 4" clip-path="url(#clip-Publication_Instagram_4)">
      <g id="Groupe_6" data-name="Groupe 6" transform="translate(-302.232 -305.531)">
        <g id="Groupe_1" data-name="Groupe 1" transform="translate(323.232 318.531)">
          <path id="Tracé_1" data-name="Tracé 1" d="M2437.687,329.031c-4.852-.691,13.547-25.98,40,4,1.411,32.1,2,26,2,26v8l-18,13,18,20v44l-10,9-29-25s-27.826,1.748-31-24c-1.411-28.217-1-41-1-41s-4.1-10.651,16-17c-15.872-2.822-15-3-15-3h-1s-7.353,7.07-7,24c-11.287,1.058-7,1-7,1l-5-1s-2.4-28.822,17-26c3.175-.353,6.248-16.76,26-9,6.349,5.643,5,4,5,4l3,3s.815,10.676,0,12a6.982,6.982,0,0,1-4,3h-5l-4-2,1,53s16.782-4.923,34,18c.2.2-1-15-1-15l-17-18v-19s.775-7.785,13-14c.2,0,0-16,0-16s-9.416-1.153-14-9C2443.585,332.13,2442.538,329.722,2437.687,329.031Z" transform="translate(-2337.187 -318.531)" fill="#0d7330" stroke="#0d7330" stroke-width="1"/>
          <path id="Tracé_2" data-name="Tracé 2" d="M2467.318,494.373s-29.41-29-39-34c.27.27-2.578-4.135-25-4-.54,0-11.46-12.813-12-17,.405-.27,0-29,0-29s-9.976-9.135-17-9c.135-.405,0-24,0-24s-11.839,4.464-14,15c-.135,0,0,15,0,15s5.194,16.109,16,18l1,18s3.63,17.952,22,32c-.135.27,19,3,19,3s8.495,3.44,27,21c.81.54,18,16,18,16s3.865,2.512,4-1C2467.453,514.508,2467.318,494.373,2467.318,494.373Z" transform="translate(-2327.818 -336.873)" fill="#0d7330" stroke="#0d7330" stroke-width="1"/>
          <path id="Tracé_3" data-name="Tracé 3" d="M2414.1,522.978s-4.548-5.557-15-6c0-.266-28.445.916-35-23,.354.089-1.068-17.863-14-23,.089-.177-5.306.345-10,10,0-.177-22.135-5.082-10-22,.266-.089-3-5-3-5s-10.417,9.142-9,18c.177.266,2.1,14.685,13,20,.266.177,1.385,1.177,16,1a37.853,37.853,0,0,0,17,28c1.417.974,10.564,7.506,32,6C2397.873,526.889,2414.1,522.978,2414.1,522.978Z" transform="translate(-2314.602 -358.478)" fill="#0d7330" stroke="#0d7330" stroke-width="1"/>
          <path id="Tracé_4" data-name="Tracé 4" d="M2354.724,413.584" transform="translate(-2326.224 -347.084)" fill="#0d7330" stroke="#0d7330" stroke-width="1"/>
          <path id="Tracé_5" data-name="Tracé 5" d="M2335.622,447.284l2,1,1-3s-12.614-11.9-2-25c.478-.478,3.063-4.8,11-7,0,.1-5.207,16.888-1,21,1.625,1.721,7,8,7,8v9s-5.071,9.08-11,13c-.669.1-9.574-2.454-9-8C2334.1,453.989,2335.622,447.284,2335.622,447.284Z" transform="translate(-2319.122 -346.784)" fill="#0d7330" stroke="#0d7330" stroke-width="1"/>
          <path id="Tracé_6" data-name="Tracé 6" d="M2313.732,572.625l28,12s17.707-17.775,31-18,47,0,47,0l32,25v19l-5,1-30-23-26-2s-9.3-.75-12-19c.451.225-15.176,3.722-7,25,.21,0,11.96,0,15,13a30.057,30.057,0,0,1-1,6s-6.728,15.456-17-1c.419-.839,5-9,5-9l-11-1s-4.671,16.442-14,9c-.524-.839-7.272-7.388,3-12,.524-.629,4.034.116,12-22,0,.1-5.283,11.969-10,17-.943,0-8.824,1.527-17,14,.209.524-12.437,3.111-23-22a61.1,61.1,0,0,0,0-8Z" transform="translate(-2313.232 -392.125)" fill="#0d7330" stroke="#0d7330" stroke-width="1"/>
          <path id="Tracé_7" data-name="Tracé 7" d="M2490.616,635.542v12s-7.84,16.732-26,16c-1.025,0-22.606-1.784-27-28,.293-2.05,2.3-16.222,19-13,2.344.439,4.354-1.6,19,11,1.172,1.318,0,3,0,3l-1,2h-14s-1.424,9.217,10,12c3.222-.146,8.309,2.039,19-17C2490.348,633.25,2490.616,635.542,2490.616,635.542Z" transform="translate(-2352.116 -408.042)" fill="#0d7330" stroke="#0d7330" stroke-width="1"/>
          <path id="Tracé_8" data-name="Tracé 8" d="M2343.088,631.273a12.839,12.839,0,0,0,9-4c.439.146,5.7,13.469,18,6,.439.146,16,13,16,13s-1.526,13.611-15,12c-.146.147-8.389-3.117-10-10-.293-.146-13.021,1.474-18-12Z" transform="translate(-2322.588 -410.773)" fill="#0d7330" stroke="#0d7330" stroke-width="1"/>
          <line id="Ligne_1" data-name="Ligne 1" y2="46" transform="translate(131.5 246.5)" fill="none" stroke="#0d7330" stroke-width="5"/>
        </g>
        <g id="Groupe_2" data-name="Groupe 2" transform="translate(484.923 318.531)">
          <path id="Tracé_1-2" data-name="Tracé 1" d="M2432.631,329.031c4.852-.691-14.547-25.98-41,4-1.411,32.1-2,26-2,26v8l18,13-18,20v44l10,9,29-25s27.826,1.748,31-24c1.411-28.217,1-41,1-41s5.1-10.651-15-17c15.872-2.822,14-3,14-3h1s7.353,7.07,7,24c11.287,1.058,8,1,8,1l4-1s3.4-28.822-16-26c-3.174-.353-7.248-16.76-27-9-6.349,5.643-4,4-4,4l-4,3s-.815,10.676,0,12a6.982,6.982,0,0,0,4,3h5l4-2-1,53s-16.782-4.923-34,18c-.2.2,1-15,1-15l17-18v-19s-.774-7.785-13-14c-.2,0,0-16,0-16s9.416-1.153,14-9A13.646,13.646,0,0,1,2432.631,329.031Z" transform="translate(-2389.821 -318.531)" stroke="#0d7330" stroke-width="1" fill="url(#linear-gradient)"/>
          <path id="Tracé_2-2" data-name="Tracé 2" d="M2360.218,494.373s29.41-29,39-34c-.27.27,2.578-4.135,25-4,.541,0,12.46-12.813,13-17-.405-.27,0-29,0-29s8.976-9.135,16-9c-.135-.405,0-24,0-24s11.839,4.464,14,15c.135,0,0,15,0,15s-5.194,16.109-16,18l-1,18s-3.629,17.952-22,32c.135.27-19,3-19,3s-8.495,3.44-27,21c-.811.54-18,16-18,16s-3.865,2.512-4-1C2360.083,514.508,2360.218,494.373,2360.218,494.373Z" transform="translate(-2357.409 -336.873)" stroke="#0d7330" stroke-width="1" fill="url(#linear-gradient)"/>
          <path id="Tracé_3-2" data-name="Tracé 3" d="M2317.951,522.972s4.548-5.557,15-6c0-.266,28.445.916,35-23-.354.089,1.068-17.863,14-23-.089-.177,5.306.345,10,10,0-.177,22.135-5.082,10-22-.266-.089,3-5,3-5s10.417,9.142,9,18c-.177.266-2.105,14.685-13,20-.266.177-1.385,1.177-16,1a37.854,37.854,0,0,1-17,28c-1.417.974-10.564,7.506-32,6C2334.179,526.884,2317.951,522.972,2317.951,522.972Z" transform="translate(-2275.141 -358.472)" stroke="#0d7330" stroke-width="1" fill="url(#linear-gradient)"/>
          <path id="Tracé_4-2" data-name="Tracé 4" d="M2354.713,413.582" transform="translate(-2240.904 -347.082)" stroke="#0d7330" stroke-width="1" fill="url(#linear-gradient)"/>
          <path id="Tracé_5-2" data-name="Tracé 5" d="M2349.646,447.281l-2,1-1-3s12.614-11.9,2-25c-.478-.478-3.063-4.8-11-7,0,.1,5.207,16.888,1,21-1.626,1.721-7,8-7,8v9s5.072,9.08,11,13c.669.1,9.574-2.454,9-8C2351.167,453.986,2349.646,447.281,2349.646,447.281Z" transform="translate(-2223.836 -346.781)" stroke="#0d7330" stroke-width="1" fill="url(#linear-gradient)"/>
          <path id="Tracé_6-2" data-name="Tracé 6" d="M2451.737,572.617l-29,12s-17.707-17.775-31-18-47,0-47,0l-32,25v19l5,1,30-23,26-2s9.3-.75,12-19c-.451.225,15.176,3.722,7,25-.209,0-11.96,0-15,13a30.057,30.057,0,0,0,1,6s6.728,15.456,17-1c-.419-.839-5-9-5-9l11-1s4.671,16.442,14,9c.524-.839,7.272-7.388-3-12-.524-.629-4.034.116-12-22,0,.1,5.283,11.969,10,17,.943,0,8.824,1.527,17,14-.209.524,13.437,3.111,24-22-.338-1.947-1-8-1-8Z" transform="translate(-2308.928 -392.117)" stroke="#0d7330" stroke-width="1" fill="url(#linear-gradient)"/>
          <path id="Tracé_7-2" data-name="Tracé 7" d="M2437.059,635.542v12s7.839,16.732,26,16c1.025,0,22.606-1.784,27-28-.293-2.05-2.3-16.222-19-13-2.343.439-4.354-1.6-19,11-1.172,1.318,0,3,0,3l1,2h14s1.424,9.217-10,12c-3.222-.146-8.308,2.039-19-17C2437.326,633.25,2437.059,635.542,2437.059,635.542Z" transform="translate(-2433.249 -408.042)" stroke="#0d7330" stroke-width="1" fill="url(#linear-gradient)"/>
          <path id="Tracé_8-2" data-name="Tracé 8" d="M2386.3,631.265a12.84,12.84,0,0,1-9-4c-.439.146-5.7,13.469-18,6-.439.146-16,13-16,13s1.526,13.611,15,12c.146.147,8.389-3.116,10-10,.293-.146,13.021,1.474,18-12Z" transform="translate(-2264.493 -410.765)" stroke="#0d7330" stroke-width="1" fill="url(#linear-gradient)"/>
          <line id="Ligne_1-2" data-name="Ligne 1" y2="46" transform="translate(10.81 246.5)" fill="none" stroke="#0d7330" stroke-width="5"/>
        </g>
        <path id="Tracé_10" data-name="Tracé 10" d="M.447-45.162v178" transform="translate(475.285 435.192)" fill="#d2d904" stroke="#0d7330" stroke-width="11"/>
      </g>
    </g>
  </svg>
  