<svg xmlns="http://www.w3.org/2000/svg" xmlns:xlink="http://www.w3.org/1999/xlink" width="1229" height="318" viewBox="0 0 1229 318">
    <defs>
      <linearGradient id="linear-gradient" x1="1.534" y1="1.132" x2="-1.222" y2="1.118" gradientUnits="objectBoundingBox">
        <stop offset="0" stop-color="#d2d904"/>
        <stop offset="1" stop-color="#073a18"/>
      </linearGradient>
      <clipPath id="clip-Publication_Instagram_7">
        <rect width="1229" height="318"/>
      </clipPath>
    </defs>
    <g id="Publication_Instagram_7" data-name="Publication Instagram – 7" clip-path="url(#clip-Publication_Instagram_7)">
      <g id="Groupe_3" data-name="Groupe 3" transform="translate(-300.232 -305.531)">
        <text id="XelKoom-Shop" transform="translate(639.232 548.531)" fill="#0d7330" font-size="199" font-family="Mistral"><tspan x="0" y="0">XelKoom-Shop</tspan></text>
      </g>
      <g id="Groupe_5" data-name="Groupe 5" transform="translate(-294.954 -305.971)">
        <g id="Groupe_1" data-name="Groupe 1" transform="translate(323.232 318.531)">
          <path id="Tracé_1" data-name="Tracé 1" d="M2437.408,329.471c-4.852-.691,13.547-25.98,40,4,1.411,32.1,2,25,2,25v8l-18,14,18,20v44l-10,8-29-24s-26.826.748-30-25c-1.411-28.217-2-40-2-40s-4.1-10.651,16-17c-15.872-2.822-14-3-14-3h-2s-6.353,6.07-6,23c-11.287,1.058-8,2-8,2l-4-2s-3.4-27.822,16-25c3.175-.353,6.248-17.76,26-10,6.349,5.643,5,4,5,4l3,4s1.815,10.676,1,12c-1.528,2.445-5,3-5,3l-4-1-5-1,2,52s15.782-3.923,33,19c.2.2,0-16,0-16l-18-18v-19s.775-6.785,13-13c.2,0,0-17,0-17a19.348,19.348,0,0,1-13-9A24.752,24.752,0,0,0,2437.408,329.471Z" transform="translate(-2337.187 -318.531)" fill="#0d7330" stroke="#0d7330" stroke-width="1"/>
          <path id="Tracé_2" data-name="Tracé 2" d="M2468.04,493.813s-30.41-28-40-33c.27.27-1.578-4.135-24-4-.54,0-12.46-13.813-13-18,.405-.27,0-28,0-28s-8.976-10.135-16-10c.135-.405,0-24,0-24s-12.839,5.464-15,16c-.135,0,0,15,0,15s5.194,16.109,16,18l1,18s4.63,17.952,23,32c-.135.27,19,3,19,3s7.495,3.44,26,21c.81.54,18,16,18,16s4.865,2.512,5-1C2468.175,514.948,2468.04,493.813,2468.04,493.813Z" transform="translate(-2327.818 -336.873)" fill="#0d7330" stroke="#0d7330" stroke-width="1"/>
          <path id="Tracé_3" data-name="Tracé 3" d="M2414.823,523.417s-4.548-6.557-15-7c0-.266-29.445.916-36-23,.354.089-.068-17.863-13-23,.089-.177-5.306,1.345-10,11,0-.177-22.135-5.082-10-22,.266-.089-3-6-3-6s-11.417,10.142-10,19c.177.266,3.1,13.685,14,19,.266.177.385,2.177,15,2a37.853,37.853,0,0,0,17,28c1.417.974,10.564,6.506,32,5C2397.595,526.329,2414.823,523.417,2414.823,523.417Z" transform="translate(-2314.602 -358.478)" fill="#0d7330" stroke="#0d7330" stroke-width="1"/>
          <path id="Tracé_4" data-name="Tracé 4" d="M2354.446,414.024" transform="translate(-2326.224 -347.084)" fill="#0d7330" stroke="#0d7330" stroke-width="1"/>
          <path id="Tracé_5" data-name="Tracé 5" d="M2335.344,446.724l2,2,1-4s-12.614-10.9-2-24c.478-.478,3.063-4.8,11-7,0,.1-4.207,16.888,0,21,1.625,1.721,6,8,6,8v9s-5.071,9.08-11,13c-.669.1-9.574-3.454-9-9C2333.822,453.429,2335.344,446.724,2335.344,446.724Z" transform="translate(-2319.122 -346.784)" fill="#0d7330" stroke="#0d7330" stroke-width="1"/>
          <path id="Tracé_6" data-name="Tracé 6" d="M2313.454,573.065l28,12s17.707-18.775,31-19,47,0,47,0l32,26v18l-4,2-30-24-26-2s-10.3-.75-13-19c.451.225-15.176,3.722-7,25,.21,0,12.96,1,16,14,0,2.306-2,6-2,6s-6.728,15.456-17-1l5-10h-11s-4.671,16.442-14,9c-.524-.839-6.272-8.388,4-13,.524-.629,4.034,1.116,12-21,0,.1-6.283,10.969-11,16-.943,0-8.824,2.527-17,15,.209.524-12.437,3.111-23-22a61.1,61.1,0,0,0,0-8Z" transform="translate(-2313.232 -392.125)" fill="#0d7330" stroke="#0d7330" stroke-width="1"/>
          <path id="Tracé_7" data-name="Tracé 7" d="M2490.338,634.982v12s-7.84,16.732-26,16c-1.025,0-22.606-1.784-27-28,.293-2.05,3.3-16.222,20-13,2.344.439,3.354-.6,18,12,1.172,1.318,0,2,0,2v3h-14s-2.424,8.217,9,11c3.222-.146,8.309,3.039,19-16C2490.07,633.689,2490.338,634.982,2490.338,634.982Z" transform="translate(-2352.116 -408.042)" fill="#0d7330" stroke="#0d7330" stroke-width="1"/>
          <path id="Tracé_8" data-name="Tracé 8" d="M2342.81,630.713a9.865,9.865,0,0,0,9-3c.439.146,6.7,13.469,19,6,.439.146,16,13,16,13s-2.526,12.611-16,11c-.146.147-8.389-3.117-10-10-.293-.146-13.021,1.474-18-12Z" transform="translate(-2322.588 -410.773)" fill="#0d7330" stroke="#0d7330" stroke-width="1"/>
          <line id="Ligne_1" data-name="Ligne 1" y2="46" transform="translate(131.222 246.94)" fill="none" stroke="#0d7330" stroke-width="5"/>
        </g>
        <g id="Groupe_2" data-name="Groupe 2" transform="translate(484.923 318.531)">
          <path id="Tracé_1-2" data-name="Tracé 1" d="M2432.353,329.471c4.852-.691-14.547-25.98-41,4-1.411,32.1-2,25-2,25v8l18,14-18,20v44l10,8,30-24s26.826.748,30-25c1.411-28.217,2-40,2-40s4.1-10.651-16-17c15.872-2.822,14-3,14-3h2s6.353,6.07,6,23c11.287,1.058,8,2,8,2l4-2s3.4-27.822-16-25c-3.174-.353-7.248-17.76-27-10-6.349,5.643-4,4-4,4l-3,4s-1.815,10.676-1,12c1.528,2.445,5,3,5,3l4-1,5-1-2,52s-16.782-3.923-34,19c-.2.2,1-16,1-16l17-18v-19s.226-6.785-12-13c-.2,0,0-17,0-17a19.348,19.348,0,0,0,13-9A24.752,24.752,0,0,1,2432.353,329.471Z" transform="translate(-2389.821 -318.531)" stroke="#0d7330" stroke-width="1" fill="url(#linear-gradient)"/>
          <path id="Tracé_2-2" data-name="Tracé 2" d="M2359.94,493.813s29.41-28,39-33c-.27.27,2.578-4.135,25-4,.541,0,12.46-13.813,13-18-.405-.27,0-28,0-28s8.976-10.135,16-10c-.135-.405,0-24,0-24s12.839,5.464,15,16c.135,0,0,15,0,15s-5.194,16.109-16,18l-2,18s-3.629,17.952-22,32c.135.27-19,3-19,3s-7.495,3.44-26,21c-.811.54-19,16-19,16s-3.865,2.512-4-1C2359.8,514.948,2359.94,493.813,2359.94,493.813Z" transform="translate(-2357.409 -336.873)" stroke="#0d7330" stroke-width="1" fill="url(#linear-gradient)"/>
          <path id="Tracé_3-2" data-name="Tracé 3" d="M2317.673,523.412s4.548-6.557,15-7c0-.266,29.445.916,36-23-.354.089.068-17.863,13-23-.089-.177,5.306,1.345,10,11,0-.177,22.135-5.082,10-22-.266-.089,3-6,3-6s11.417,10.142,10,19c-.177.266-3.105,13.685-14,19-.266.177-1.385,2.177-16,2a35,35,0,0,1-16,28c-1.417.974-10.564,6.506-32,5C2334.9,526.324,2317.673,523.412,2317.673,523.412Z" transform="translate(-2275.141 -358.472)" stroke="#0d7330" stroke-width="1" fill="url(#linear-gradient)"/>
          <path id="Tracé_4-2" data-name="Tracé 4" d="M2354.435,414.022" transform="translate(-2240.904 -347.082)" stroke="#0d7330" stroke-width="1" fill="url(#linear-gradient)"/>
          <path id="Tracé_5-2" data-name="Tracé 5" d="M2349.367,446.721l-2,2v-4s12.614-10.9,2-24c-.478-.478-4.063-4.8-12-7,0,.1,5.207,16.888,1,21-1.626,1.721-6,8-6,8v9s5.072,9.08,11,13c.669.1,9.574-3.454,9-9C2351.889,453.426,2349.367,446.721,2349.367,446.721Z" transform="translate(-2223.836 -346.781)" stroke="#0d7330" stroke-width="1" fill="url(#linear-gradient)"/>
          <path id="Tracé_6-2" data-name="Tracé 6" d="M2451.459,573.057l-28,12s-18.707-18.775-32-19-46,0-46,0l-32,26v18l4,2,30-24,26-2s9.3-.75,12-19c-.451.225,15.176,3.722,7,25-.209,0-11.96,1-15,14,0,2.306,2,6,2,6s5.728,15.456,16-1l-5-10h11s5.671,16.442,15,9c.524-.839,6.272-8.388-4-13-.524-.629-4.034,1.116-12-21,0,.1,5.283,10.969,10,16,.943,0,8.824,2.527,17,15-.209.524,13.437,3.111,24-22-.338-1.947-1-8-1-8Z" transform="translate(-2308.928 -392.117)" stroke="#0d7330" stroke-width="1" fill="url(#linear-gradient)"/>
          <path id="Tracé_7-2" data-name="Tracé 7" d="M2437.78,634.982v12s7.839,16.732,26,16c1.025,0,21.606-1.784,26-28-.293-2.05-2.3-16.222-19-13-2.343.439-4.354-.6-19,12-1.172,1.318,0,2,0,2l1,3h14s1.424,8.217-10,11c-3.222-.146-7.308,3.039-18-16C2438.048,633.689,2437.78,634.982,2437.78,634.982Z" transform="translate(-2433.249 -408.042)" stroke="#0d7330" stroke-width="1" fill="url(#linear-gradient)"/>
          <path id="Tracé_8-2" data-name="Tracé 8" d="M2386.024,630.7s-3.753,1.247-8-3c-.439.146-6.7,13.469-19,6-.439.146-16,13-16,13s1.526,12.611,15,11c.146.147,8.389-3.116,10-10,.293-.146,13.021,1.474,18-12Z" transform="translate(-2264.493 -410.765)" stroke="#0d7330" stroke-width="1" fill="url(#linear-gradient)"/>
          <line id="Ligne_1-2" data-name="Ligne 1" y2="46" transform="translate(10.531 245.94)" fill="none" stroke="#0d7330" stroke-width="5"/>
        </g>
        <path id="Tracé_10" data-name="Tracé 10" d="M.169-44.722v178" transform="translate(475.285 435.192)" fill="#d2d904" stroke="#0d7330" stroke-width="11"/>
      </g>
    </g>
  </svg>
  